<?xml version="1.0" encoding="utf-8"?>
<!-- Generator: Adobe Illustrator 24.1.1, SVG Export Plug-In . SVG Version: 6.00 Build 0)  -->
<svg version="1.1" id="Слой_1" xmlns="http://www.w3.org/2000/svg" xmlns:xlink="http://www.w3.org/1999/xlink" x="0px" y="0px"
	 viewBox="0 0 40 40" style="enable-background:new 0 0 40 40;" xml:space="preserve">
<style type="text/css">
	.st0{fill:#E6E7E8;}
	.st1{fill:#D4FBFF;}
	.st2{fill:#FA759E;}
	.st3{fill:#6DC9F7;}
	.st4{fill:#FFD7E5;}
	.st5{fill:#0089EF;}
	.st6{fill:#FFFFFF;}
	.st7{fill:#3A2C60;}
</style>
<desc>Created with Sketch.</desc>
<path class="st0" d="M37.4,35.6h-1c-0.2-0.3-0.5-1.1-0.5-1.9c0-1,0.6-2.3,0.6-2.4c0.1-0.2,0-0.3-0.1-0.4c-3-1.7-6.3-1.4-9.1-0.6
	c0-0.1-0.1-0.3-0.2-0.4c0.9-0.8,1.9-1.7,2.7-2.7c0.3-0.1,1-0.4,1.4-0.8c5-4.7,0.5-10.4-0.5-11.6c-0.6-0.9-1.3-1.8-2.2-2.5
	c-0.1,0-0.1-0.1-0.2-0.2c0-0.2,0-0.6,0-0.7c0-0.1,0-0.2,0-0.3h0.4c0.2,0,0.3-0.1,0.3-0.3V5.4h2.4c0.5,0,0.9-0.4,0.9-0.9
	s-0.4-0.9-0.9-0.9H10.1C9.6,3.5,9.1,4,9.1,4.5s0.4,0.9,0.9,0.9h0.5l0,6.4c-0.3,0.1-0.5,0.4-0.5,0.7c0,0.3,0.1,0.5,0.4,0.7l0,0.2
	l-0.2,2.1c-1,1.2-2.6,3.8-2.3,6.7c0.2,2.1,1.5,3.9,3.7,5.4c0,0,0,0,0,0c0,0,0,0,0,0c0.8,0.9,1.6,1.7,2.5,2.5
	c-0.1,0.1-0.1,0.2-0.2,0.3c-2.8-0.8-6.1-1-9.1,0.6c-0.1,0.1-0.2,0.3-0.1,0.4c0,0,0.6,1.3,0.6,2.4c0,0.8-0.3,1.6-0.5,1.9h-1
	c-0.9,0-1.6,0.7-1.6,1.6c0,0.9,0.7,1.6,1.6,1.6h14.7c0.5,0,0.9-0.3,1-0.7c0.2-0.4,0.6-0.7,1-0.7s0.9,0.3,1,0.7
	c0.1,0.4,0.6,0.7,1,0.7h14.7c0.9,0,1.6-0.7,1.6-1.6C39,36.3,38.3,35.6,37.4,35.6L37.4,35.6z M12.5,5.4V11c0,0.2,0.1,0.3,0.3,0.3h0.4
	c-0.1,0.4-0.2,0.7-0.2,1.1c-0.6,0.5-1.1,1-1.6,1.6l-0.1-0.6l0-0.2c0.3-0.2,0.4-0.5,0.3-0.9c-0.1-0.2-0.2-0.4-0.4-0.5l0-6.4L12.5,5.4
	L12.5,5.4z"/>
<path class="st1" d="M34.9,29.9c-7.1-3.9-15.5,2.7-15.5,2.7s-8.4-6.6-15.5-2.7c0,0,0.6,1.4,0.6,2.5c0,1.1-0.6,2.2-0.6,2.2h15.5h0.1
	h15.4c0,0-0.6-1.1-0.6-2.2C34.2,31.3,34.9,29.9,34.9,29.9L34.9,29.9z"/>
<path class="st2" d="M21.4,34.6c-0.2,0-0.3-0.1-0.4-0.2c-0.3-0.6-0.9-1-1.7-1c-0.7,0-1.4,0.4-1.7,1c-0.1,0.1-0.2,0.2-0.4,0.2H2.6
	c-0.7,0-1.3,0.6-1.3,1.3c0,0.7,0.6,1.3,1.3,1.3h14.7c0.3,0,0.6-0.2,0.7-0.5c0.2-0.5,0.7-0.9,1.3-0.9c0.6,0,1.1,0.4,1.3,0.9
	c0.1,0.3,0.4,0.5,0.7,0.5h14.7c0.7,0,1.3-0.6,1.3-1.3c0-0.7-0.6-1.3-1.3-1.3H21.4z"/>
<path class="st3" d="M28.9,13.9c-0.6-0.9-1.3-1.7-2.1-2.5c-0.1-0.1-0.3-0.3-0.3-0.3c0-0.1,0-0.7,0-0.8c0-0.2-0.1-0.5-0.1-0.7h-14
	c-0.2,0.5-0.3,1.1-0.3,1.5c-0.8,0.7-1.6,1.5-2.2,2.4l0,0c0,0-7,7.2,0.6,12.4v0c3.4,3.9,8.8,7,8.8,7s5.5-3.1,8.8-7.1
	c0,0,1-0.4,1.4-0.7C34.4,20.4,29.8,14.9,28.9,13.9L28.9,13.9z"/>
<path class="st4" d="M19.3,23.9c-3.2,0-5.8,1.7-6.8,4.1c3.1,2.9,6.8,4.9,6.8,4.9s3.6-2,6.7-5C25.1,25.6,22.5,23.9,19.3,23.9z"/>
<circle class="st1" cx="15" cy="16.5" r="3.7"/>
<circle class="st1" cx="23.7" cy="16.5" r="3.7"/>
<path class="st2" d="M21.2,20.1c0,1.3-1.8,2.4-1.8,2.4s-1.8-1.1-1.8-2.4s0.8-0.9,1.8-0.9S21.2,18.7,21.2,20.1L21.2,20.1z"/>
<g>
	<path class="st5" d="M15.9,32.4c-0.5,0-1-0.4-1-1v-1.1c0-0.5,0.4-1,1-1c0.5,0,1,0.4,1,1v1.1C16.9,32,16.4,32.4,15.9,32.4z"/>
	<path class="st5" d="M14,31.5c-0.5,0-1-0.4-1-1v-1.1c0-0.5,0.4-1,1-1s1,0.4,1,1v1.1C14.9,31.1,14.5,31.5,14,31.5z"/>
	<path class="st5" d="M22.8,32.4c0.5,0,1-0.4,1-1v-1.1c0-0.5-0.4-1-1-1c-0.5,0-1,0.4-1,1v1.1C21.8,32,22.2,32.4,22.8,32.4z"/>
	<path class="st5" d="M24.7,31.5c0.5,0,1-0.4,1-1v-1.1c0-0.5-0.4-1-1-1c-0.5,0-1,0.4-1,1v1.1C23.7,31.1,24.2,31.5,24.7,31.5z"/>
	<path class="st5" d="M11.5,3.8h15.7v5.9H11.5L11.5,3.8z"/>
</g>
<path class="st6" d="M11.5,3.8h1v5.9h-1V3.8z"/>
<path class="st5" d="M29.9,3.8H8.8c-0.3,0-0.6-0.3-0.6-0.6c0-0.3,0.3-0.6,0.6-0.6h21.1c0.3,0,0.6,0.3,0.6,0.6S30.2,3.8,29.9,3.8z"/>
<path class="st7" d="M36.1,34.3h-1c-0.2-0.3-0.5-1.1-0.5-1.9c0-1,0.6-2.3,0.6-2.4c0.1-0.2,0-0.3-0.1-0.4c-3-1.7-6.3-1.4-9.1-0.6
	c0-0.1-0.1-0.3-0.2-0.4c0.9-0.8,1.9-1.7,2.7-2.7c0.3-0.1,1-0.4,1.4-0.8c5-4.7,0.5-10.4-0.5-11.6c-0.6-0.9-1.3-1.8-2.2-2.5
	c-0.1,0-0.1-0.1-0.2-0.2c0-0.2,0-0.6,0-0.7c0-0.1,0-0.2,0-0.3h0.4c0.2,0,0.3-0.1,0.3-0.3V4.1h2.4c0.5,0,0.9-0.4,0.9-0.9
	s-0.4-0.9-0.9-0.9H8.8c-0.5,0-0.9,0.4-0.9,0.9s0.4,0.9,0.9,0.9h0.5l0,6.4c-0.3,0.1-0.5,0.4-0.5,0.7c0,0.3,0.1,0.5,0.4,0.7l0,0.2
	L9,14.1c-1,1.2-2.6,3.8-2.3,6.7c0.2,2.1,1.5,3.9,3.7,5.4c0,0,0,0,0,0c0,0,0,0,0,0c0.8,0.9,1.6,1.7,2.5,2.5c-0.1,0.1-0.1,0.2-0.2,0.3
	c-2.8-0.8-6.1-1-9.1,0.6c-0.1,0.1-0.2,0.3-0.1,0.4c0,0,0.6,1.3,0.6,2.4c0,0.8-0.3,1.6-0.5,1.9h-1c-0.9,0-1.6,0.7-1.6,1.6
	c0,0.9,0.7,1.6,1.6,1.6h14.7c0.5,0,0.9-0.3,1-0.7c0.2-0.4,0.6-0.7,1-0.7c0.5,0,0.9,0.3,1,0.7c0.1,0.4,0.6,0.7,1,0.7h14.7
	c0.9,0,1.6-0.7,1.6-1.6C37.7,35,37,34.3,36.1,34.3L36.1,34.3z M34.4,30.1c-0.1,0.3-0.3,0.8-0.4,1.3h-5.8c-0.2,0-0.3,0.1-0.3,0.3
	c0,0.2,0.1,0.3,0.3,0.3h5.7c0,0.1,0,0.3,0,0.4c0,0.2,0,0.3,0,0.5h-3.7c-0.2,0-0.3,0.1-0.3,0.3s0.1,0.3,0.3,0.3h3.8
	c0.1,0.3,0.2,0.5,0.3,0.7H21.4c0,0-0.1,0-0.1-0.1c-0.3-0.7-0.9-1.1-1.6-1.2c0.3-0.2,1-0.6,1.9-1.2c0.2,0.5,0.6,0.9,1.2,0.9
	c0.6,0,1.2-0.5,1.3-1.1c0.2,0.1,0.4,0.2,0.7,0.2c0.7,0,1.3-0.6,1.3-1.3v-0.9C28.6,28.9,31.6,28.7,34.4,30.1L34.4,30.1z M25.3,29.5
	v1.1c0,0.4-0.3,0.6-0.6,0.6c-0.4,0-0.6-0.3-0.6-0.6v-0.2v-0.9c0-0.4,0.3-0.6,0.6-0.6C25,28.8,25.3,29.1,25.3,29.5z M23.4,30.5v0.9
	c0,0.4-0.3,0.6-0.6,0.6c-0.4,0-0.6-0.3-0.6-0.6v-1.1c0-0.4,0.3-0.6,0.6-0.6c0.4,0,0.6,0.3,0.6,0.6V30.5z M8.5,3.2
	c0-0.2,0.1-0.3,0.3-0.3h21.1c0.2,0,0.3,0.1,0.3,0.3c0,0.2-0.1,0.3-0.3,0.3H8.8C8.6,3.5,8.5,3.3,8.5,3.2z M11.2,4.1v5.6
	c0,0.2,0.1,0.3,0.3,0.3h0.4c-0.1,0.4-0.2,0.7-0.2,1.1c-0.6,0.5-1.1,1-1.6,1.6L10.1,12l0-0.2c0.3-0.2,0.4-0.5,0.3-0.9
	c-0.1-0.2-0.2-0.4-0.4-0.5l0-6.4L11.2,4.1L11.2,4.1z M10.8,25.8v-4.9c0-0.2-0.1-0.3-0.3-0.3c-0.2,0-0.3,0.1-0.3,0.3v4.5
	c-1.7-1.3-2.7-2.8-2.9-4.6c-0.2-2,0.7-3.9,1.5-5.2l-0.1,1c0,0.4,0.3,0.7,0.6,0.7l0.6,0c0.4,0,0.7-0.3,0.6-0.7l-0.3-2.9
	c0.6-0.8,1.2-1.5,2-2.1c0.1-0.1,0.1-0.1,0.1-0.2c0-0.4,0.1-0.8,0.2-1.3h3.9c0.2,0,0.3-0.1,0.3-0.3s-0.1-0.3-0.3-0.3h-4.7V4.1h15v5.3
	h-4.7c-0.2,0-0.3,0.1-0.3,0.3S22,10,22.2,10h3.9c0,0.1,0,0.2,0.1,0.4c0,0.1,0,0.6,0,0.8c0,0.1,0,0.2,0.1,0.3c0,0,0.2,0.2,0.3,0.2
	c0.8,0.7,1.5,1.5,2,2.4c0,0,0,0,0,0c0.9,1,5.2,6.3,0.6,10.7c-0.2,0.2-0.5,0.3-0.8,0.5v-4.4c0-0.2-0.1-0.3-0.3-0.3s-0.3,0.1-0.3,0.3
	v4.8c-0.8,1-1.7,1.8-2.7,2.7c-0.1-0.1-0.3-0.1-0.5-0.1c-0.6,0-1.2,0.5-1.3,1.1c-0.2-0.1-0.4-0.2-0.7-0.2c-0.7,0-1.3,0.6-1.3,1.3v0.7
	c-1,0.7-1.8,1.2-2.1,1.4c-0.3-0.2-1.1-0.7-2.1-1.3v-0.7c0-0.7-0.6-1.3-1.3-1.3c-0.2,0-0.5,0.1-0.7,0.2c-0.1-0.6-0.6-1.1-1.3-1.1
	c-0.2,0-0.4,0-0.5,0.1C12.5,27.5,11.6,26.7,10.8,25.8L10.8,25.8z M14.6,30.5c0,0.4-0.3,0.6-0.6,0.6c-0.4,0-0.6-0.3-0.6-0.6v-1.1
	c0-0.4,0.3-0.6,0.6-0.6c0.4,0,0.6,0.3,0.6,0.6v0.9V30.5z M15.2,30.5v-0.2c0-0.4,0.3-0.6,0.6-0.6s0.6,0.3,0.6,0.6v1.1
	c0,0.4-0.3,0.6-0.6,0.6s-0.6-0.3-0.6-0.6V30.5z M4.6,33.6h3.8c0.2,0,0.3-0.1,0.3-0.3s-0.1-0.3-0.3-0.3H4.7c0-0.2,0-0.3,0-0.5
	c0-0.1,0-0.3,0-0.4h5.7c0.2,0,0.3-0.1,0.3-0.3c0-0.2-0.1-0.3-0.3-0.3H4.6c-0.1-0.5-0.3-1-0.4-1.3c2.8-1.4,5.9-1.2,8.5-0.4v0.9
	c0,0.7,0.6,1.3,1.3,1.3c0.2,0,0.5-0.1,0.7-0.2c0.1,0.6,0.6,1.1,1.3,1.1c0.6,0,1.1-0.4,1.2-0.9c0.9,0.6,1.6,1,1.9,1.2
	c-0.7,0.1-1.3,0.5-1.6,1.2c0,0-0.1,0.1-0.1,0.1H4.3C4.4,34.1,4.5,33.8,4.6,33.6z M36.1,36.9H21.4c-0.2,0-0.4-0.1-0.4-0.3
	c-0.2-0.7-0.9-1.1-1.6-1.1s-1.4,0.5-1.6,1.1c-0.1,0.2-0.2,0.3-0.4,0.3H2.6c-0.5,0-1-0.4-1-1c0-0.5,0.4-1,1-1h14.7
	c0.3,0,0.6-0.2,0.7-0.4c0.3-0.5,0.8-0.9,1.4-0.9c0.6,0,1.1,0.3,1.4,0.9c0.1,0.3,0.4,0.4,0.7,0.4h14.7c0.5,0,1,0.4,1,1
	C37.1,36.5,36.6,36.9,36.1,36.9L36.1,36.9z"/>
<circle class="st7" cx="15" cy="16.5" r="2.1"/>
<circle class="st7" cx="23.7" cy="16.5" r="2.1"/>
<path class="st7" d="M19.2,22.8c0.1,0,0.1,0,0.2,0s0.1,0,0.2,0c0.1,0,2-1.2,2-2.7c0-0.5-0.1-0.8-0.3-1.1c-0.3-0.3-0.8-0.2-1.2-0.2
	c-0.4,0-0.8,0-1.2,0c-0.5,0-0.9-0.1-1.2,0.2c-0.2,0.2-0.3,0.5-0.3,1.1C17.2,21.6,19.1,22.8,19.2,22.8L19.2,22.8z M17.9,19.5
	c0.1,0,0.2-0.1,0.3-0.1c0.1,0,0.3,0,0.4,0c0.4,0,0.9,0,1.3,0c0.3,0,0.6-0.1,0.7,0c0,0,0.1,0.2,0.1,0.6c0,0.9-1.1,1.8-1.5,2.1
	c-0.5-0.4-1.5-1.2-1.5-2.1C17.8,19.7,17.9,19.6,17.9,19.5L17.9,19.5z"/>
<path class="st7" d="M17.9,10h2.8c0.2,0,0.3-0.1,0.3-0.3c0-0.2-0.1-0.3-0.3-0.3h-2.8c-0.2,0-0.3,0.1-0.3,0.3
	C17.6,9.9,17.7,10,17.9,10L17.9,10z"/>
</svg>
